<svg xmlns:dc="http://purl.org/dc/elements/1.1/" xmlns:cc="http://creativecommons.org/ns#" xmlns:rdf="http://www.w3.org/1999/02/22-rdf-syntax-ns#" xmlns:svg="http://www.w3.org/2000/svg" xmlns="http://www.w3.org/2000/svg" xmlns:sodipodi="http://sodipodi.sourceforge.net/DTD/sodipodi-0.dtd" xmlns:inkscape="http://www.inkscape.org/namespaces/inkscape" version="1.1" x="0px" y="0px" viewBox="0 0 100 125"><g transform="translate(0,-952.36218)"><path d="m 54.809969,960.26246 c 1.35613,1.30826 2.24472,3.34994 2.24472,5.70082 l 0,1.10562 c 0.934654,-0.43267 1.921961,-0.62192 2.918055,-0.62192 1.710036,0 3.450721,0.58663 4.809933,1.90027 1.359213,1.31365 2.244685,3.37568 2.244685,5.73538 l 0,4.52611 c 0.934689,-0.43327 1.95385,-0.62192 2.950122,-0.62192 1.704721,0 3.421807,0.59202 4.777936,1.90028 C 76.11148,981.19539 77,983.23705 77,985.58792 l 0,31.51008 c 0,9.5691 -3.366638,17.0223 -8.465564,21.9395 -5.098713,4.9172 -11.839642,7.3247 -18.534366,7.3247 -6.694758,0 -13.403551,-2.4075 -18.502405,-7.3247 C 26.398882,1034.1203 23,1026.6671 23,1017.098 l 0,-19.45191 c 0,-2.3529 0.91676,-4.3936 2.276788,-5.70087 1.359992,-1.3073 3.070381,-1.90028 4.77783,-1.90028 0.998043,0 2.013803,0.18925 2.950157,0.62189 l 0,-16.61875 c 0,-2.35088 0.888591,-4.39257 2.244756,-5.70083 1.355988,-1.30826 3.105248,-1.93482 4.809898,-1.93482 0.998858,0 1.981311,0.22079 2.918055,0.65647 l 0,-1.10562 c 0,-2.35088 0.888555,-4.39256 2.244649,-5.70082 1.356024,-1.3083 3.073288,-1.90028 4.777937,-1.90028 1.757587,0.0405 3.689681,0.84823 4.809898,1.90028 z m -4.809898,2.52216 c -0.785905,0 -1.540382,0.26635 -2.052212,0.76011 -0.511937,0.49379 -0.865843,1.16528 -0.865843,2.41855 l 0,35.27602 c 0.01538,1.1682 -0.96796,2.2427 -2.052319,2.2427 -1.084252,0 -2.067519,-1.0745 -2.052212,-2.2427 l 0,-27.01848 c 0.07391,-1.05892 -0.43728,-1.90035 -0.865878,-2.59126 -0.511689,-0.49379 -1.266272,-0.79469 -2.052177,-0.79469 -0.78587,0 -1.572484,0.3009 -2.084315,0.79469 -0.511831,0.49376 -0.865843,1.16525 -0.865843,2.41852 0,14.1548 0,28.28052 0,42.42792 0.01538,1.1683 -0.967925,2.2428 -2.052283,2.2428 -1.084287,0 -2.067519,-1.0745 -2.052213,-2.2428 l 0,-18.62271 c 0.07898,-1.0595 -0.431397,-1.9058 -0.865736,-2.5912 -0.514736,-0.4948 -1.292208,-0.7947 -2.084421,-0.7947 -0.792071,0 -1.537441,0.2999 -2.052212,0.7947 -0.514737,0.4947 -0.897874,1.1327 -0.897874,2.384 l 0,19.45191 c 0,8.471 2.864338,14.5543 7.118857,18.6572 4.254449,4.1029 10.000311,6.1845 15.776681,6.1845 5.776335,0 11.522232,-2.0816 15.776752,-6.1845 4.254378,-4.1029 7.118681,-10.1862 7.118681,-18.6572 l 0,-31.51008 c 0,-1.25326 -0.353941,-1.89017 -0.865772,-2.38397 -0.511831,-0.49379 -1.266342,-0.79466 -2.052248,-0.79466 -0.785905,0 -1.540418,0.30087 -2.052249,0.79466 -0.820205,0.8438 -0.8882,1.59874 -0.897874,2.62584 l 0,19.38281 c 0.01538,1.1682 -0.96796,2.2427 -2.052248,2.2427 -1.084323,0 -2.067519,-1.0745 -2.052283,-2.2427 0,-10.38581 0,-20.75279 0,-31.12997 0,-1.26404 -0.350327,-1.95488 -0.865736,-2.45307 -0.515552,-0.49822 -1.29476,-0.79469 -2.084351,-0.79469 -0.78959,0 -1.536732,0.29647 -2.052283,0.79469 -0.515516,0.49819 -0.865772,1.18903 -0.865772,2.45307 l 0,27.50217 c 0.01541,1.1682 -0.96789,2.2427 -2.052177,2.2427 -1.084394,0 -2.06759,-1.0745 -2.052283,-2.2427 -0.01028,-11.88359 0,-23.76122 0,-35.62152 0,-1.25327 -0.386044,-1.92476 -0.897839,-2.41855 -0.511866,-0.49376 -1.266484,-0.76011 -2.052319,-0.76011 z" style="text-indent:0;text-transform:none;direction:ltr;block-progression:tb;baseline-shift:baseline;color:#ffffff;enable-background:accumulate;" fill="#ffffff" fill-opacity="1" fill-rule="evenodd" stroke="none" marker="none" visibility="visible" display="inline" overflow="visible"/></g></svg>
